<svg width="251" height="289" viewBox="0 0 251 289" fill="none" xmlns="http://www.w3.org/2000/svg">
<path d="M239.577 77.9969V78.0218L125.494 144.488V144.5V277.456L11.4354 210.978H11.4231V77.9969L125.494 11.5312L239.577 77.9969Z" fill="#800E45"/>
<path fill-rule="evenodd" clip-rule="evenodd" d="M119.783 1.54428C123.317 -0.514662 127.67 -0.514765 131.204 1.54401L245.287 68.0098C248.822 70.0694 251 73.8766 251 77.9969V78.0218C251 82.1421 248.822 85.9493 245.287 88.009L136.917 151.146V277.456C136.917 281.576 134.74 285.383 131.205 287.443C127.671 289.503 123.316 289.502 119.782 287.443L6.09508 221.181C2.47032 219.248 0 215.404 0 210.978V77.9969C0 73.8768 2.17768 70.0697 5.71258 68.01L119.783 1.54428ZM22.8462 204.314L114.071 257.483V144.488C114.071 140.367 116.249 136.56 119.784 134.5L216.746 78.0094L125.494 24.8452L22.8462 84.6553V204.314Z" fill="#800E45"/>
<path d="M239.577 210.978L125.494 277.469V277.456V144.5V144.488L239.577 78.0218V210.978Z" fill="#DD0071"/>
<path fill-rule="evenodd" clip-rule="evenodd" d="M245.289 68.036C248.823 70.0959 251 73.9024 251 78.0218V210.978C251 215.098 248.823 218.905 245.289 220.964L131.206 287.455C127.671 289.515 123.317 289.515 119.782 287.455C116.248 285.395 114.071 281.589 114.071 277.469V144.488C114.071 140.367 116.249 136.56 119.784 134.5L233.867 68.0346C237.401 65.9755 241.755 65.976 245.289 68.036ZM136.917 151.146V257.496L228.154 204.321V97.9909L136.917 151.146Z" fill="#DD0071"/>
</svg>
